<svg width="14" height="14" viewBox="0 0 14 14" fill="none" xmlns="http://www.w3.org/2000/svg">
<path d="M13 6.2485C12.8166 4.92622 12.2043 3.70103 11.2575 2.76167C10.3107 1.82231 9.08182 1.22089 7.76025 1.05005C6.43869 0.87921 5.09772 1.14843 3.9439 1.81624C2.79009 2.48404 1.88744 3.51339 1.375 4.74572M1 1.74016V4.74572H4M1 7.7515C1.18342 9.07378 1.7957 10.299 2.74252 11.2383C3.68934 12.1777 4.91818 12.7791 6.23975 12.9499C7.56131 13.1208 8.90228 12.8516 10.0561 12.1838C11.2099 11.516 12.1126 10.4866 12.625 9.25428M13 12.2598V9.25428H10" stroke="#787878" stroke-width="1.5" stroke-linecap="round" stroke-linejoin="round"/>
</svg>
